<svg width="28" height="28" viewBox="0 0 28 28" fill="none" xmlns="http://www.w3.org/2000/svg">
<path d="M9.55556 15.1111H18.4444C18.7593 15.1111 19.0231 15.0046 19.2361 14.7917C19.4491 14.5787 19.5556 14.3148 19.5556 14C19.5556 13.6852 19.4491 13.4213 19.2361 13.2083C19.0231 12.9954 18.7593 12.8889 18.4444 12.8889H9.55556C9.24074 12.8889 8.97685 12.9954 8.76389 13.2083C8.55093 13.4213 8.44444 13.6852 8.44444 14C8.44444 14.3148 8.55093 14.5787 8.76389 14.7917C8.97685 15.0046 9.24074 15.1111 9.55556 15.1111ZM6.22222 24C5.61111 24 5.08796 23.7824 4.65278 23.3472C4.21759 22.912 4 22.3889 4 21.7778V6.22222C4 5.61111 4.21759 5.08796 4.65278 4.65278C5.08796 4.21759 5.61111 4 6.22222 4H21.7778C22.3889 4 22.912 4.21759 23.3472 4.65278C23.7824 5.08796 24 5.61111 24 6.22222V21.7778C24 22.3889 23.7824 22.912 23.3472 23.3472C22.912 23.7824 22.3889 24 21.7778 24H6.22222ZM6.22222 21.7778H21.7778V6.22222H6.22222V21.7778Z" fill="#10310B"/>
</svg>
