<svg width="28" height="28" viewBox="0 0 28 28" fill="none" xmlns="http://www.w3.org/2000/svg">
<path d="M12.3333 15.6667V17.8889C12.3333 18.3519 12.4954 18.7454 12.8194 19.0694C13.1435 19.3935 13.537 19.5556 14 19.5556C14.463 19.5556 14.8565 19.3935 15.1806 19.0694C15.5046 18.7454 15.6667 18.3519 15.6667 17.8889V15.6667H17.8889C18.3519 15.6667 18.7454 15.5046 19.0694 15.1806C19.3935 14.8565 19.5556 14.463 19.5556 14C19.5556 13.537 19.3935 13.1435 19.0694 12.8194C18.7454 12.4954 18.3519 12.3333 17.8889 12.3333H15.6667V10.1111C15.6667 9.64815 15.5046 9.25463 15.1806 8.93056C14.8565 8.60648 14.463 8.44444 14 8.44444C13.537 8.44444 13.1435 8.60648 12.8194 8.93056C12.4954 9.25463 12.3333 9.64815 12.3333 10.1111V12.3333H10.1111C9.64815 12.3333 9.25463 12.4954 8.93056 12.8194C8.60648 13.1435 8.44444 13.537 8.44444 14C8.44444 14.463 8.60648 14.8565 8.93056 15.1806C9.25463 15.5046 9.64815 15.6667 10.1111 15.6667H12.3333ZM6.22222 24C5.61111 24 5.08796 23.7824 4.65278 23.3472C4.21759 22.912 4 22.3889 4 21.7778V6.22222C4 5.61111 4.21759 5.08796 4.65278 4.65278C5.08796 4.21759 5.61111 4 6.22222 4H21.7778C22.3889 4 22.912 4.21759 23.3472 4.65278C23.7824 5.08796 24 5.61111 24 6.22222V21.7778C24 22.3889 23.7824 22.912 23.3472 23.3472C22.912 23.7824 22.3889 24 21.7778 24H6.22222ZM6.22222 21.7778H21.7778V6.22222H6.22222V21.7778Z" fill="#10310B"/>
</svg>
